<svg xmlns="http://www.w3.org/2000/svg" version="1.1" xmlns:xlink="http://www.w3.org/1999/xlink" xmlns:svgjs="http://svgjs.dev/svgjs" viewBox="0 0 800 800" opacity="1"><g stroke-width="1" stroke="hsl(265, 55%, 20%)" fill="none"><path d="M1479.025727794136 -1414.2834965238942C1909.9015464527424 -490.7424474647528 2309.7777518694793 2158.8325973428964 1884.7799958029218 2688.6906504699027C1459.7822397363643 3218.54870359691 90.84559511986845 1777.1317498554417 -560.963501325341 1129.0351584857322C-1212.7725977705504 480.938567116023 -1322.5577437105312 176.4398334577304 -1243.9036671340814 -422.1729881047097C-1165.2495905576313 -1020.7858096671498 -750.7008910350947 -1537.6166957599773 -183.423933758384 -1744.306385013973C383.8530235183266 -1950.9960742679689 1048.1499091355295 -2337.824545583036 1479.025727794136 -1414.2834965238942C1909.9015464527424 -490.7424474647528 2309.7777518694793 2158.8325973428964 1884.7799958029218 2688.6906504699027 "></path><path d="M1463.1576956535805 -1387.6028846939817C1887.6971052142658 -477.6433216504156 2281.6927781984036 2132.9673842630036 1862.944989132825 2655.0334071969655C1444.1972000672463 3177.0994301309283 95.39197669511054 1756.8797845327176 -546.8316918611986 1118.3140253890328C-1189.055360417508 479.74826624534853 -1297.226018917195 179.72745514085454 -1219.7286199374576 -410.08223669272616C-1142.2312209577203 -999.8919285263069 -733.7788258399268 -1509.1223604118873 -174.8441767584618 -1712.7724954121477C384.09047232300304 -1916.4226304124081 1038.6182860928943 -2297.5624477375477 1463.1576956535805 -1387.6028846939817C1887.6971052142658 -477.6433216504156 2281.6927781984036 2132.9673842630036 1862.944989132825 2655.0334071969655 "></path><path d="M1447.2897855833367 -1360.9223644168035C1865.4927860461016 -464.544287388813 2253.6079265976405 2107.1020796303765 1841.1101045330402 2621.376072371295C1428.6122824684408 3135.6500651122133 99.93848034066514 1736.6277276572587 -532.6997603267441 1107.5928007395992C-1165.3380009941532 478.5578738219401 -1271.8941720535463 183.0149852712443 -1195.5534506705214 -397.9915768334772C-1119.2127292874966 -978.9981389381983 -716.8566385744464 -1480.6281166165313 -166.2642976882271 -1681.2386973630566C384.328043197992 -1881.849278109582 1029.0867851205712 -2257.300441444794 1447.2897855833367 -1360.9223644168035C1865.4927860461016 -464.544287388813 2253.6079265976405 2107.1020796303765 1841.1101045330402 2621.376072371295 "></path><path d="M1431.421570337312 -1334.241538963844C1843.2881617021562 -451.4449479514294 2225.522769821096 2081.2370801735287 1819.2749147574746 2587.7190427214036C1413.0270596938535 3094.2010052692776 104.48467881043848 1716.375975957581 -518.5681339680705 1096.8718812659463C-1141.6209467465796 477.36778657431205 -1246.5626303656788 186.30282057741488 -1171.3785865793666 -385.900611798447C-1096.194542793054 -958.1040441743089 -699.934756484747 -1452.1335676453941 -157.68472379377363 -1649.7045941381843C384.56530889719966 -1847.2756206309746 1019.5549789724678 -2217.038129976259 1431.421570337312 -1334.241538963844C1843.2881617021562 -451.4449479514294 2225.522769821096 2081.2370801735287 1819.2749147574746 2587.7190427214036 "></path><path d="M1415.5536602670686 -1307.5612017921349C1821.083842533992 -438.34609679529535 2197.4379182203324 2055.371592435433 1797.4400301576902 2554.0615247902633C1397.442142095048 3052.751457145094 109.03118245599308 1696.1237359766528 -504.436202433616 1086.1504735110439C-1117.9035873232249 476.1772110454349 -1221.2307835020301 189.5901676023359 -1147.2034173124302 -373.8101350446668C-1073.1760511228304 -937.2104376916691 -683.0125692192667 -1423.6395069555072 -149.10484472353892 -1618.170979194562C384.8028797721888 -1812.702451433617 1010.0234780001447 -2176.776306788974 1415.5536602670686 -1307.5612017921349C1821.083842533992 -438.34609679529535 2197.4379182203324 2055.371592435433 1797.4400301576902 2554.0615247902633 "></path><path d="M1399.6856281265123 -1280.8804068567536C1798.8794012955154 -425.2467878754899 2169.352944549257 2029.5065624610088 1775.605023487593 2520.404464622794C1381.85710242593 3011.30236678458 113.57756403123517 1675.871953759396 -490.3043929694737 1075.4295235198124C-1094.1863499701826 474.9870932802287 -1195.8990587086942 192.87797239092833 -1123.0283701158066 -361.719200527215C-1050.1576815229193 -916.3163734453578 -666.0905040240987 -1395.1449885019483 -140.5250877236167 -1586.6369064872679C385.0403285768655 -1778.1288244725874 1000.4918549575095 -2136.514025838017 1399.6856281265123 -1280.8804068567536C1798.8794012955154 -425.2467878754899 2169.352944549257 2029.5065624610088 1775.605023487593 2520.404464622794 "></path><path d="M1383.8176570211126 -1254.199795026841C1776.675021092195 -412.1476620611529 2141.2680319133374 2003.641349381116 1753.7700778526523 2486.7472213498568C1366.2721237919682 2969.8530933185984 118.12400664163351 1655.6199884366724 -476.1725224701752 1064.708390423113C-1070.4690515819839 473.7967924095542 -1170.5672728802015 196.16559407405248 -1098.8532618840268 -349.62844911523143C-1027.1392508878519 -895.4224923045149 -649.1683777937743 -1366.650653153858 -131.94526968853825 -1555.1030168854425C385.27783841669816 -1743.555380617027 990.9602929500302 -2096.251927992529 1383.8176570211126 -1254.199795026841C1776.675021092195 -412.1476620611529 2141.2680319133374 2003.641349381116 1753.7700778526523 2486.7472213498568 "></path><path d="M1367.9495638454 -1227.5192747496628C1754.4705188185621 -399.04862779955056 2113.1829972071055 1977.776044748487 1731.9350101473992 2453.0898865241843C1350.6870230876934 2928.4037282998815 122.67032718171936 1635.3679315612126 -462.04077404118937 1053.9871657736785C-1046.7518752640979 472.60639998614533 -1145.2356091220217 199.45312420444134 -1074.6782757225592 -337.5377892559827C-1004.120942323097 -874.5287027164068 -632.2463736337627 -1338.1564093585023 -123.36557372377229 -1523.5692188363514C385.51522618621834 -1708.9820283142005 981.4286088722388 -2055.9899216997756 1367.9495638454 -1227.5192747496628C1754.4705188185621 -399.04862779955056 2113.1829972071055 1977.776044748487 1731.9350101473992 2453.0898865241843 "></path><path d="M1352.0816537751566 -1200.8384492967034C1732.2661996503975 -385.9492883621665 2085.098145606342 1951.9110452916411 1710.1001255476149 2419.432856874295C1335.102105488888 2886.9546684569477 127.21683082727395 1615.1161798615344 -447.9088425067347 1043.266246300026C-1023.034515840743 471.4163127385177 -1119.903762258373 202.7409595106128 -1050.503106455623 -325.4468242209523C-981.1024506528734 -853.634607952517 -615.3241863682822 -1309.661860387365 -114.78569465353758 -1492.0351156114791C385.7527970612073 -1674.408370835593 971.8971078999157 -2015.7276102312403 1352.0816537751566 -1200.8384492967034C1732.2661996503975 -385.9492883621665 2085.098145606342 1951.9110452916411 1710.1001255476149 2419.432856874295 "></path><path d="M1336.2136216346007 -1174.157806949213C1710.061758411921 -372.85013203025164 2057.013171935266 1926.0458627293256 1688.2651188775176 2385.775644118935C1319.5170658197699 2845.5054255085433 131.7632124025156 1594.864245056388 -433.7770330425924 1032.5451437209044C-999.3172784877006 470.22604238542135 -1094.5720374650368 206.02861171131462 -1026.3280592589995 -313.3560422913911C-958.0840810529621 -832.7406962940963 -598.4021211731142 -1281.1674945216969 -106.20593765361536 -1460.5011954920756C385.9902458658837 -1639.8348964624543 962.3654848572805 -1975.465481868174 1336.2136216346007 -1174.157806949213C1710.061758411921 -372.85013203025164 2057.013171935266 1926.0458627293256 1688.2651188775176 2385.775644118935 "></path><path d="M1320.3455894940448 -1147.4772866720348C1687.8573171734442 -359.75109776864906 2028.9281982641905 1900.1805580966989 1666.4301122074207 2352.1183092932624C1303.932026150651 2804.0560604898283 136.3095939777577 1574.612188180929 -419.6452235784502 1021.8239190714708C-975.6000411346583 469.0356499620125 -1069.2403126717006 209.31614184170394 -1002.1530120623759 -301.2653824321419C-935.0657114530509 -811.8469067059877 -581.4800559779462 -1252.673250726341 -97.62618065369293 -1428.9673974429845C386.22769467056014 -1605.2615441596279 952.8338618146454 -1935.2034755754203 1320.3455894940448 -1147.4772866720348C1687.8573171734442 -359.75109776864906 2028.9281982641905 1900.1805580966989 1666.4301122074207 2352.1183092932624 "></path><path d="M1304.4774963183327 -1120.7964612190754C1665.6528148998113 -346.6517583312652 2000.8431635579586 1874.315558639852 1644.5950445021676 2318.461279643372C1288.3469254463766 2762.6070006468935 140.85591451784353 1554.3604364812509 -405.5134751494643 1011.1029995978179C-951.8828648167723 467.84556271438487 -1043.9086489135207 212.60397714787496 -977.9780259009084 -289.1744173971117C-912.0474028882961 -790.9528119420984 -564.5580518179345 -1224.178701755204 -89.04648468892697 -1397.4332942181122C386.4650824400803 -1570.6878866810202 943.302177736854 -1894.9411641068853 1304.4774963183327 -1120.7964612190754C1665.6528148998113 -346.6517583312652 2000.8431635579586 1874.315558639852 1644.5950445021676 2318.461279643372 "></path><path d="M1288.6094031426205 -1094.1158188715847C1643.4483126261784 -333.5526019993504 1972.7581288517263 1848.450376077537 1622.7599767969145 2284.804066888013C1272.7618247421024 2721.15775769849 145.40223505792937 1534.1085016761044 -391.38172672047835 1000.3818970186962C-928.1656884988862 466.65529236128805 -1018.5769851553409 215.89162934857723 -953.8030397394409 -277.08363546755027C-889.0290943235411 -770.0589002836773 -547.6360476579227 -1195.6843358895355 -80.46678872416078 -1365.8993740987084C386.70247020960073 -1536.1144123078816 933.7704936590617 -1854.679035743819 1288.6094031426205 -1094.1158188715847C1643.4483126261784 -333.5526019993504 1972.7581288517263 1848.450376077537 1622.7599767969145 2284.804066888013 "></path><path d="M1272.7414320372204 -1067.4352070416721C1621.243932422858 -320.45347618501364 1944.6732162158069 1822.5851629976437 1600.9250311619735 2251.146823615076C1257.1768461081406 2679.7084842325085 149.94867766832772 1513.856536353379 -377.2498562211799 989.6607639219965C-904.4483901106876 465.464991490614 -993.2451993268485 219.17925103170091 -929.6279315076611 -264.99288405556695C-866.0106636884736 -749.1650191428348 -530.7139214275985 -1167.1900005414454 -71.88697068908255 -1334.3654844968833C386.93998004943364 -1501.5409684523208 924.2389316515828 -1814.416937898331 1272.7414320372204 -1067.4352070416721C1621.243932422858 -320.45347618501364 1944.6732162158069 1822.5851629976437 1600.9250311619735 2251.146823615076 "></path><path d="M1256.8734609318208 -1040.754625729338C1599.039552219538 -307.3543808882548 1916.5883035798875 1796.7199194001728 1579.090085527033 2217.4895498245605C1241.5918674741783 2638.259180248948 154.49512027872606 1493.6045405130762 -363.1179857218815 978.9396003077186C-880.731091722489 464.2746601023614 -967.913413498356 222.46684219724648 -905.4528232758812 -252.90216316116175C-842.9922330534063 -728.2711685195702 -513.7917951972743 -1138.6956957109333 -63.30715265400386 -1302.8316254126357C387.1774898892663 -1466.9675551143384 914.7073696441039 -1774.154870570421 1256.8734609318208 -1040.754625729338C1599.039552219538 -307.3543808882548 1916.5883035798875 1796.7199194001728 1579.090085527033 2217.4895498245605 "></path><path d="M1241.0054287912649 -1014.0738307939566C1576.8351109810615 -294.2550719684491 1888.5033299088118 1770.8548894257474 1557.255078856936 2183.832489657091C1226.0068278050603 2596.810089888435 159.04150185396816 1473.3527582958204 -348.9861762577392 968.218650316488C-857.0138543694467 463.08454233715565 -942.5816887050198 225.75464698583892 -881.2777760792575 -240.8112286437099C-819.9738634534951 -707.3771042732587 -496.8697300021063 -1110.2011772573744 -54.72739565408165 -1271.2975527053418C387.41493869394276 -1432.393928153309 905.1757466014687 -1733.8925896194642 1241.0054287912649 -1014.0738307939566C1576.8351109810615 -294.2550719684491 1888.5033299088118 1770.8548894257474 1557.255078856936 2183.832489657091 "></path><path d="M1225.137396650709 -987.393432587091C1554.6306697425844 -281.156159777159 1860.4183562377357 1744.9894627228077 1535.4200721868392 2150.175032761107C1210.4217881359423 2555.3606027994065 163.58788342921002 1453.1005793500485 -334.854366793597 957.4973035967414C-833.2966170164043 461.89402784343383 -917.2499639116837 229.0420550459162 -857.1027288826338 -228.72069085477347C-796.9554938535839 -686.4834367554629 -479.9476648069383 -1081.7070555323312 -46.14763865415944 -1239.763876726563C387.6523874986192 -1397.8206979207953 895.6441235588336 -1693.630705397023 1225.137396650709 -987.393432587091C1554.6306697425844 -281.156159777159 1860.4183562377357 1744.9894627228077 1535.4200721868392 2150.175032761107 "></path><path d="M1209.2693034749964 -960.7126681692878C1532.4261674689515 -268.05688137493144 1832.3333215315038 1719.1244022308051 1513.5850044815857 2116.517942076061C1194.836687431668 2513.9114819213155 168.13420396929587 1432.848766615215 -320.7226183646111 946.7763230879327C-809.5794406985183 460.7038795606504 -891.9183001535039 232.32982931693095 -832.9277427211664 -216.6297868548993C-773.937185288829 -665.5894030267295 -463.02566064692655 -1053.2125675963503 -37.567942689393476 -1208.2298345368472C387.8897752681394 -1363.247101477344 886.1124394810417 -1653.3684549636441 1209.2693034749964 -960.7126681692878C1532.4261674689515 -268.05688137493144 1832.3333215315038 1719.1244022308051 1513.5850044815857 2116.517942076061 "></path><path d="M1193.401271334441 -934.0321173745315C1510.2217262304748 -254.95781659575073 1804.248347860428 1693.2591281157556 1491.7499978114888 2082.8606377679666C1179.2516477625495 2472.4621474201776 172.6805855445382 1412.5967402573337 -306.590808900469 936.0551289560767C-785.8622033454759 459.5135176548192 -866.5865753601677 235.61738996489862 -808.7526955245428 -204.53909647807222C-750.9188156889179 -644.6955829210428 -446.10359545175857 -1024.7182932834162 -28.988185689471266 -1176.6960059701778C388.1272240728158 -1328.6737186569394 876.5808164384061 -1613.1064181533122 1193.401271334441 -934.0321173745315C1510.2217262304748 -254.95781659575073 1804.248347860428 1693.2591281157556 1491.7499978114888 2082.8606377679666 "></path><path d="M1177.5332697114627 -907.3513224391503C1488.0173155095763 -241.85850767594525 1776.1634047069306 1667.3940981413316 1469.91502165897 2049.2035776004977C1163.6666386110096 2431.013057059665 177.22699763735818 1392.3449580400775 -292.4589689187486 925.3341789648457C-762.1449354748554 458.32339988961394 -841.2548200492533 238.9051947534913 -784.5776178103409 -192.44816196062015C-727.9004155714285 -623.8015186747314 -429.18149973901245 -996.2237748298573 -20.40839817197093 -1145.1619332628838C388.36470339507036 -1294.1000916959101 867.0492239133494 -1572.8441372023553 1177.5332697114627 -907.3513224391503C1488.0173155095763 -241.85850767594525 1776.1634047069306 1667.3940981413316 1469.91502165897 2049.2035776004977 "></path><path d="M1161.6652986060626 -880.670741126816C1465.812935306256 -228.75941237918641 1748.0784920710112 1641.5288545438598 1448.0800760240295 2015.5463038099824C1148.0816599770478 2389.563753076105 181.7734402477563 1372.0929621997748 -278.3270984194502 914.6130153505678C-738.4276370866569 457.13306850136087 -815.9230342207609 242.19278591903708 -760.402509578561 -180.35744106621496C-704.8819849363612 -602.9076680514668 -412.2593735086882 -967.7294699993452 -11.82858013689247 -1113.6280741786363C388.6022132349035 -1259.5266783579275 857.5176619058702 -1532.5820698744453 1161.6652986060626 -880.670741126816C1465.812935306256 -228.75941237918641 1748.0784920710112 1641.5288545438598 1448.0800760240295 2015.5463038099824 "></path><path d="M1145.7971443951947 -853.9901598144816C1443.6083719974667 -215.66031708242758 1719.9933963296226 1615.6636109463884 1426.2449472836197 1981.889030019467C1132.4964982376168 2348.114449092545 186.31969975268612 1351.8409663594716 -264.1954110256205 903.8918517362899C-714.7105218039271 455.9427371131087 -790.5914314977373 245.48037708458264 -736.2275844522499 -168.26672017180977C-681.8637374067624 -582.0138174282022 -395.3374303838327 -939.2351651688332 -3.248945207282759 -1082.094215094389C388.83953996926743 -1224.9532650199449 847.9859167929226 -1492.3200025465353 1145.7971443951947 -853.9901598144816C1443.6083719974667 -215.66031708242758 1719.9933963296226 1615.6636109463884 1426.2449472836197 1981.889030019467 "></path><path d="M1129.9292038073727 -827.3094564318346C1421.4040223117245 -202.56109971535648 1691.9085142112813 1589.7984894192296 1404.4100321662572 1948.2318782992638C1116.9115501212332 2306.6652671792976 190.86617288066236 1331.589092589481 -250.06351000874395 893.170810192325C-690.9931928981504 454.75252779516813 -765.2596151516667 248.76809032044093 -712.0524457028919 -156.17587720709207C-658.8452762541169 -561.1198447346251 -378.41527363593036 -910.7407382680086 5.330903345373827 -1050.5602339398292C389.07708032667824 -1190.37972961165 838.4543853030214 -1452.057813148313 1129.9292038073727 -827.3094564318346C1421.4040223117245 -202.56109971535648 1691.9085142112813 1589.7984894192296 1404.4100321662572 1948.2318782992638 "></path><path d="M1114.061232701973 -800.6289361546565C1399.1996421084036 -189.4620654537539 1663.8236015753619 1563.933184786602 1382.5750865313166 1914.5745434735913C1101.3265714872714 2265.2159021605817 195.41261549106093 1311.337035714022 -235.93163950944552 882.4495855428909C-667.2758945099517 453.5621353717595 -739.9278293231744 252.05562045083047 -687.8773374711119 -144.08521734784313C-635.8268456190494 -540.2260551465168 -361.4931474056061 -882.2464944726528 13.910721380452287 -1019.0264358907382C389.3145901665109 -1155.8063773088236 828.9228232955422 -1411.795806855559 1114.061232701973 -800.6289361546565C1399.1996421084036 -189.4620654537539 1663.8236015753619 1563.933184786602 1382.5750865313166 1914.5745434735913 "></path><path d="M1098.1932615965734 -773.9481717368534C1376.9952619050832 -176.36278705152654 1635.7386889394425 1538.0681242945993 1360.740140896376 1880.9174527885448C1085.7415928533092 2223.7667812824907 199.95905810145905 1291.085222979188 -221.79976901014697 871.7286050340817C-643.5585961217532 452.3719870889754 -714.5960434946819 255.34339472184502 -663.7022292393319 -131.99431334796918C-612.8084149839821 -519.3320214177835 -344.5710211752819 -853.752006536672 22.490539415530748 -987.4923937010221C389.5521000063436 -1121.2327808653724 819.3912612880633 -1371.5335564221805 1098.1932615965734 -773.9481717368534C1376.9952619050832 -176.36278705152654 1635.7386889394425 1538.0681242945993 1360.740140896376 1880.9174527885448 "></path><path d="M1082.325229456017 -747.2676209420972C1354.790820666607 -163.26372227234583 1607.6537152683663 1512.2028501795498 1338.9051342262792 1847.2601484804513C1070.1565531841911 2182.3174467813524 204.50543967670114 1270.8331966213068 -207.6679595460049 861.0074109022257C-619.8413587687108 451.18162518314466 -689.2643187013457 258.6309553698127 -639.5271820427083 -119.90362297114234C-589.7900453840709 -498.438201312097 -327.6489559801139 -825.257732223738 31.070296415453186 -955.958565134353C389.78954881102027 -1086.659398044968 809.859638245428 -1331.2715196118486 1082.325229456017 -747.2676209420972C1354.790820666607 -163.26372227234583 1607.6537152683663 1512.2028501795498 1338.9051342262792 1847.2601484804513 "></path><path d="M1066.457044727571 -720.5869175594503C1332.5862268402393 -150.1645049052745 1579.5685890094005 1486.3377286523914 1317.0699749682913 1813.6029967602485C1054.5713609271825 2140.868264868106 209.0516686640526 1250.5813228513166 -193.53630266975324 850.2863693582608C-596.1242740035591 449.99141586520454 -663.9327464959001 261.918668605671 -615.3522874339753 -107.81278000642442C-566.7718283720503 -477.5442286185198 -310.72704337283653 -796.7633053229133 39.64990082748477 -924.4245839797932C390.0268450278061 -1052.085862636673 800.327862614902 -1291.009330213626 1066.457044727571 -720.5869175594503C1332.5862268402393 -150.1645049052745 1579.5685890094005 1486.3377286523914 1317.0699749682913 1813.6029967602485 "></path><path d="M1050.5891041397492 -693.9063362471159C1310.381877154497 -137.06540960851567 1551.4837068910592 1460.4724850549196 1295.2350598509283 1779.9457229697327C1038.9864128107984 2099.4189608845463 213.59814179202885 1230.329327011014 -179.4044016528767 839.5652057439829C-572.4069450977825 448.8010844769519 -638.6009301498297 265.20625977121676 -591.1771486846172 -95.72205911201922C-543.7533672194048 -456.6503779952552 -293.80488662493417 -768.2690004924013 48.22974938014124 -892.8907248955459C390.2643853852169 -1017.5124492986904 790.7963311250012 -1250.747262885716 1050.5891041397492 -693.9063362471159C1310.381877154497 -137.06540960851567 1551.4837068910592 1460.4724850549196 1295.2350598509283 1779.9457229697327 "></path><path d="M1034.7211330343494 -667.2256633820471C1288.1774969511766 -123.96622275902246 1523.3987942551394 1434.607333010183 1273.4001142159877 1746.2885407319513C1023.4014341768366 2057.96974845372 218.14458440242743 1210.0774227234451 -165.27253115357826 828.8441336824399C-548.6896467095839 447.6108446414337 -613.2691443213373 268.49394248949693 -567.0020404528373 -83.63124666487965C-520.7349365843374 -435.75643581925624 -276.88276039460993 -739.7746041091549 56.80956741521982 -861.3567742585642C390.50189522504957 -982.9389444079734 781.2647691175221 -1210.4851040050717 1034.7211330343494 -667.2256633820471C1288.1774969511766 -123.96622275902246 1523.3987942551394 1434.607333010183 1273.4001142159877 1746.2885407319513 "></path><path d="M1018.8531008937932 -640.5449599994002C1265.9730557127 -110.86700539195135 1495.3138205840637 1408.7422114830238 1251.565107545891 1712.6313890117485C1007.8163945077183 2016.5205665404728 222.6909659776693 1189.8255489534545 -151.14072168943608 818.123092138474C-524.9724093565416 446.42063532349357 -587.9374195280011 271.7816557253552 -542.8269932562137 -71.54040370016196C-497.7165669844262 -414.86246312567914 -259.96069519944194 -711.2801772083303 65.38932441514203 -829.8227931040044C390.739344029726 -948.3654089996785 771.7331460748867 -1170.2229146068491 1018.8531008937932 -640.5449599994002C1265.9730557127 -110.86700539195135 1495.3138205840637 1408.7422114830238 1251.565107545891 1712.6313890117485 "></path><path d="M1002.9850687532376 -613.8643786870659C1243.7686144742229 -97.76791009519252 1467.228846912988 1382.8769678855524 1229.730100875794 1678.9741152212328C992.2313548386003 1975.071262556913 227.2373475529114 1169.5735531131518 -137.0089122252939 807.4019285241961C-501.2551720034992 445.23030393524095 -562.6056947346649 275.069246890901 -518.65194605959 -59.449682805756765C-474.6981973845151 -393.96861250241454 -243.03863000427395 -682.7858723778182 73.96908141506435 -798.2889340197571C390.97679283440266 -913.7919956616959 762.2015230322515 -1129.9608472789391 1002.9850687532376 -613.8643786870659C1243.7686144742229 -97.76791009519252 1467.228846912988 1382.8769678855524 1229.730100875794 1678.9741152212328 "></path><path d="M987.1169755775252 -587.1837973747315C1221.5641122005904 -84.66881479843369 1439.1438122067557 1357.011724288081 1207.895033170541 1645.316841430717C976.6462541343258 1933.6219585733534 231.78366809299723 1149.3215572728486 -122.87716379630797 796.6807649099183C-477.5379956856131 444.03997254698834 -537.2740309764849 278.3568380564466 -494.4769598981226 -47.35896191135157C-451.67988881976015 -373.07476187914995 -226.11662584426222 -654.2915675473062 82.54877737983031 -766.7550749355098C391.21418060392284 -879.2185823237133 752.6698389544599 -1089.698779951029 987.1169755775252 -587.1837973747315C1221.5641122005904 -84.66881479843369 1439.1438122067557 1357.011724288081 1207.895033170541 1645.316841430717 "></path><path d="M971.2489739545472 -560.5030329569283C1199.359701479692 -71.56953639620633 1411.0588690532581 1331.1466637960784 1186.060057018022 1611.6597507456704C961.0612449827856 1892.1728376952624 236.33008018581722 1129.0697445380147 -108.74532381458766 785.9597844011093C-453.82072781499267 442.84982426420424 -511.9422756655707 281.6446123274611 -470.3018821839208 -35.26805791147763C-428.66148870227084 -352.1807281504166 -209.1945301315161 -625.7970796113253 91.12856489733065 -735.2210327457938C391.4516599261774 -844.6449858802621 743.1382464294027 -1049.4365295176503 971.2489739545472 -560.5030329569283C1199.359701479692 -71.56953639620633 1411.0588690532581 1331.1466637960784 1186.060057018022 1611.6597507456704 "></path><path d="M955.3809723315694 -533.8225431973283C1177.1552907587934 -58.4705326521821 1382.9739258997606 1305.2813286458727 1164.225080865503 1578.0023854024203C945.4762358312457 1850.7234421589678 240.87649227863767 1108.8176571449771 -94.61348383286736 775.2385292340971C-430.1034599443722 441.65940132321725 -486.6105203546564 284.93211194027253 -446.126804469719 -23.177428569807034C-405.64308858478154 -331.2869690798864 -192.27243441877 -597.3028663335476 99.70835241483098 -703.6872652142807C391.6891392484322 -810.0716640950138 733.6066539043454 -1009.1745537424748 955.3809723315694 -533.8225431973283C1177.1552907587934 -58.4705326521821 1382.9739258997606 1305.2813286458727 1164.225080865503 1578.0023854024203 "></path><path d="M939.5129096734352 -507.1418703322596C1154.9508190027384 -45.37134580268889 1354.8889217111068 1279.4161766011357 1142.390043677828 1544.3452031646389C929.8911656445493 1809.2742297281425 245.4228433363014 1088.5657528574084 -80.4817048863033 764.5174571725536C-406.386253108908 440.469161487699 -461.27882607889836 288.2197946585527 -421.95178779067345 -11.086616122667238C-382.6247495024485 -310.3930269038874 -175.35039974118013 -568.8084699503012 108.28807889717518 -672.153314577299C391.9265575355305 -775.4981592042969 724.0750003441319 -968.9123948618304 939.5129096734352 -507.1418703322596C1154.9508190027384 -45.37134580268889 1354.8889217111068 1279.4161766011357 1142.390043677828 1544.3452031646389 "></path><path d="M923.6448470153011 -480.4610448793002C1132.7463472466836 -32.27200636530506 1326.803917522453 1253.5511771442898 1120.555006490153 1510.688173514749C914.3060954578532 1767.8251698852082 249.96919439396538 1068.3140011577307 -66.34992593973925 753.7965376989011C-382.6690462734438 439.2790742400716 -435.94713180314034 291.5076299647237 -397.7767711116279 1.004348912362957C-359.6064104201155 -289.4989321399976 -158.42836506359038 -540.3139209791641 116.86780537951927 -640.6192113524268C392.1639758226288 -740.9245017256894 714.5433467839184 -928.6500833932955 923.6448470153011 -480.4610448793002C1132.7463472466836 -32.27200636530506 1326.803917522453 1253.5511771442898 1120.555006490153 1510.688173514749 "></path><path d="M907.7769064274796 -453.780494084544C1110.5419975609414 -19.172941586124125 1298.7190354041113 1227.6859030292399 1098.7200913727904 1477.030869206655C898.7211473414693 1726.3758353840703 254.51566752194185 1048.0619747998498 -52.218024922862696 743.0753435670454C-358.9517173676671 438.0887123342409 -410.61531545706976 294.7951906126914 -373.60163236226987 13.095039289190026C-336.5879492674699 -268.6051120343111 -141.506208315688 -511.81964666623014 125.44765393217585 -609.0853827857576C392.40151618003983 -706.351118905285 705.0118152940177 -888.3880465829636 907.7769064274796 -453.780494084544C1110.5419975609414 -19.172941586124125 1298.7190354041113 1227.6859030292399 1098.7200913727904 1477.030869206655 "></path><path d="M891.9088437693454 -427.0998212194752C1088.3375258048866 -6.073754736631145 1270.6340312154578 1201.8207509845033 1076.8850541851152 1443.3736869688737C883.1360771547731 1684.9266229532445 259.0620185796058 1027.8100705122815 -38.08624597629853 732.3542715055019C-335.2345105322029 436.8984724987224 -385.28362118131173 298.08287333097155 -349.4266156832243 25.185851736329596C-313.56961018513687 -247.71116985831213 -124.58417363809804 -483.3252502829837 134.02738041451994 -577.5514321487759C392.63893446713814 -671.7776140145681 695.4801617338042 -848.1258877023192 891.9088437693454 -427.0998212194752C1088.3375258048866 -6.073754736631145 1270.6340312154578 1201.8207509845033 1076.8850541851152 1443.3736869688737 "></path><path d="M876.0408116287892 -400.41920938956264C1066.1330845664097 7.025371077705813 1242.5490575443819 1175.9555379046096 1055.0500475150184 1409.7164436959365C867.5510374856549 1643.477349487263 263.6084001548479 1007.5581051895563 -23.954436512156462 721.6331384088021C-311.51727317916055 435.7081716280479 -359.9518963879756 301.37049501409547 -325.25156848660066 37.276603148312915C-290.55124058522574 -226.8172887174694 -107.66210844293016 -454.8309149348935 142.60713741444215 -546.0175425469505C392.8763832718146 -637.2041701590074 685.9485386911688 -807.8637898568311 876.0408116287892 -400.41920938956264C1066.1330845664097 7.025371077705813 1242.5490575443819 1175.9555379046096 1055.0500475150184 1409.7164436959365 "></path><path d="M860.1728100058115 -373.73853652449395C1043.9286738455112 20.124557927198907 1214.4641143908843 1150.090385859873 1033.2150713624994 1376.0592614581547C851.9660283341145 1602.0281370564376 268.1548122476679 987.306200901988 -9.822596530436044 710.9120663472588C-287.8000053085401 434.5179317925297 -334.6201410770613 304.6581777323754 -301.07649077239887 49.367415595452485C-267.53284046773643 -205.92334654147044 -90.74001273018405 -426.33651855164703 151.1869249319426 -514.4835919099688C393.11386259406913 -602.6306652682905 676.4169461661118 -767.6016309761867 860.1728100058115 -373.73853652449395C1043.9286738455112 20.124557927198907 1214.4641143908843 1150.090385859873 1033.2150713624994 1376.0592614581547 "></path><path d="M844.3047473476774 -347.05798572973765C1021.7242020894564 33.2236227063795 1186.3791102022303 1124.2251117448232 1011.3800341748245 1342.4019571500612C836.3809581474184 1560.5788025552997 272.7011633053319 967.0541745441069 4.30918241612801 700.1908722154028C-264.0827984730759 433.3275698866987 -309.2884468013032 307.9457383803433 -276.90147409335333 61.458105972279554C-244.51450138540338 -185.02952643578396 -73.81797805259419 -397.8422442387131 159.7666514142868 -482.9497633432996C393.35128088116744 -568.0572824478861 666.885292605898 -727.3395941658548 844.3047473476774 -347.05798572973765C1021.7242020894564 33.2236227063795 1186.3791102022303 1124.2251117448232 1011.3800341748245 1342.4019571500612 "></path><path d="M828.4367152071213 -320.3772518295127C999.51976085098 46.322870591028845 1158.2941365311547 1098.3600207352426 989.5450275047274 1308.7448359474365C820.7959184783001 1519.1296511596302 277.24754488057397 946.8023312916944 18.44099188027019 689.4698611890155C-240.3655611200336 432.13739108633695 -283.9567220079671 311.2334821337795 -252.72642689672966 73.54897945457537C-221.4961317854922 -164.13552322462886 -56.8959128574262 -369.3477868203104 168.346408414209 -451.4157516711617C393.5887296858441 -533.483716522013 657.3536695632629 -687.0773742500543 828.4367152071213 -320.3772518295127C999.51976085098 46.322870591028845 1158.2941365311547 1098.3600207352426 989.5450275047274 1308.7448359474365 "></path><path d="M812.5686830665654 -293.6967010347564C977.3153196125031 59.42193537020955 1130.2091628600788 1072.494746620193 967.7100208346305 1275.0875316393426C805.2108788091821 1477.6803166584923 281.79392645581595 926.5503049338133 32.57280134441248 678.7486670571598C-216.6483237669912 430.947029180506 -258.6249972146309 314.52104278174716 -228.551379700106 85.63966983140233C-198.477762185581 -143.24170311894238 -39.97384766225821 -340.85351250737654 176.92616541413122 -419.8819231044925C393.82617849052053 -498.9103337016085 647.8220465206277 -646.8153374397224 812.5686830665654 -293.6967010347564C977.3153196125031 59.42193537020955 1130.2091628600788 1072.494746620193 967.7100208346305 1275.0875316393426 "></path><path d="M796.7006509260095 -267.0159976521095C955.1108783740265 72.52115273728089 1102.1241891890031 1046.629625093034 945.8750141645335 1241.4303799191393C789.6258391400638 1436.231134745245 286.34030803105816 906.2984311638231 46.70461080855455 668.0276255131946C-192.9310864139489 429.75681986256586 -233.29327242129477 317.80875601760545 -204.37633250348233 97.73051279612014C-175.4593925856699 -122.34773042536517 -23.05178246709022 -312.35908560655184 185.50592241405343 -388.34794194993265C394.06362729519697 -464.3367982933135 638.2904234779921 -606.5531480414999 796.7006509260095 -267.0159976521095C955.1108783740265 72.52115273728089 1102.1241891890031 1046.629625093034 945.8750141645335 1241.4303799191393 "></path><path d="M780.8326187854532 -240.33538582219705C932.9064371355498 85.62027855161773 1074.0392155179275 1020.7644120131408 924.0400074944366 1207.7731366462021C774.0407994709458 1394.7818612792635 290.8866896063 886.0464658410983 60.83642027269684 657.3064924164948C-169.21384906090657 428.56651899189137 -207.96154762795857 321.0963777007296 -180.20128530685867 109.82126420810346C-152.4410229857587 -101.45384928452245 -6.129717271922232 -283.86475025846164 194.08567941397564 -356.8140523481072C394.3010760998736 -429.7633544377528 628.758800435357 -566.2910501960117 780.8326187854532 -240.33538582219705C932.9064371355498 85.62027855161773 1074.0392155179275 1020.7644120131408 924.0400074944366 1207.7731366462021 "></path><path d="M764.9645866448973 -213.65471295712825C910.7019958970732 98.71946540111082 1045.9542418468516 994.8992599684038 902.2050008243395 1174.115954408421C758.4557598018275 1353.332648848438 295.4330711815421 865.7945615535295 74.96822973683902 646.5854203549516C-145.49661170786425 427.37627915637313 -182.62982283462242 324.38406041900953 -156.026238110235 121.91207665524303C-129.42265338584752 -80.55990710852348 10.792347923245757 -255.3703538752152 202.66543641389785 -325.28010171112555C394.53852490455006 -395.1898495470359 619.2271773927216 -526.0288913153674 764.9645866448973 -213.65471295712825C910.7019958970732 98.71946540111082 1045.9542418468516 994.8992599684038 902.2050008243395 1174.115954408421 "></path><path d="M749.0966155394976 -186.97410112721582C888.4976156937526 111.81859121544767 1017.8693292109322 969.0340468885106 880.370055189399 1140.4587111354833C742.8707811678655 1311.8833753824565 299.97951379194046 845.542596230805 89.10010023613745 635.8642872582518C-121.77931331966568 426.18597828569864 -157.29803700613002 327.67168210213345 -131.85112987845508 134.00282806722635C-106.4042227507801 -59.66602596768075 27.714474153569995 -226.8760185271251 211.2452544489763 -293.74621210930013C394.77603474438274 -360.6164056914752 609.6956153852425 -485.76679346987925 749.0966155394976 -186.97410112721582C888.4976156937526 111.81859121544767 1017.8693292109322 969.0340468885106 880.370055189399 1140.4587111354833 "></path><path d="M733.2285833989417 -160.29345877972514C866.2931744552759 124.91774754736275 989.7843555398565 943.1688643261957 858.5350485193019 1106.8014983801243C727.2857414987475 1270.434132434053 304.52589536718256 825.2906614256583 103.23190970027963 625.1431846791304C-98.06207596662335 424.9957079326023 -131.96631221279387 330.9593343028355 -107.67608268183142 146.0936099967878C-83.38585315086891 -38.772114309259905 44.63653934873798 -198.38165266145666 219.82501144889864 -262.2122919898966C395.0134835490593 -326.04293131833646 600.1639923426073 -445.50466510681304 733.2285833989417 -160.29345877972514C866.2931744552759 124.91774754736275 989.7843555398565 943.1688643261957 858.5350485193019 1106.8014983801243 "></path><path d="M717.3605512583856 -133.6128469498126C844.0887332167993 138.0168733616997 961.6993818687806 917.3036512463025 836.7000418492048 1073.1442551071866C711.7007018296292 1228.984858968071 309.07227694242465 805.0386961029335 117.36371916442181 614.4220515824309C-74.34483861358098 423.8054070619278 -106.63458741945766 334.2469559859594 -83.5010354852077 158.1843614087711C-60.367483550957786 -17.878233168417182 61.55860454390597 -169.8873173133665 228.40476844882085 -230.67840238807116C395.2509323537357 -291.46948746277576 590.632369299972 -405.2425672613249 717.3605512583856 -133.6128469498126C844.0887332167993 138.0168733616997 961.6993818687806 917.3036512463025 836.7000418492048 1073.1442551071866 "></path><path d="M701.4924886002516 -106.9321740847439C821.8842614607443 151.1160602111928 933.6143776801268 891.4384992015653 814.8650046615298 1039.4870728694054C696.1156316429328 1187.5356465372456 313.6186280000885 784.786791815365 131.49549811098586 603.7009795208871C-50.62763177811678 422.61516722640954 -81.30289314369963 337.53463870423957 -59.32601880616215 170.27517385591068C-37.34914446862473 3.0157090075817905 78.48063922149584 -141.39292093012006 236.98449493116505 -199.1444517510895C395.48835064083414 -256.89598257205887 581.1007157397586 -364.9804083806805 701.4924886002516 -106.9321740847439C821.8842614607443 151.1160602111928 933.6143776801268 891.4384992015653 814.8650046615298 1039.4870728694054 "></path><path d="M685.6244564596955 -80.25156225483136C799.6798202222678 164.21518602552965 905.529404009051 865.573286121672 793.029997991433 1005.829829596468C680.5305919738148 1146.086373071264 318.1650095753305 764.5348264926401 145.62730757512804 592.9798464241876C-26.910394425074458 421.42486635573505 -55.971168350363484 340.8222603873634 -35.15097160953849 182.365925267894C-14.330774868713547 23.909590148424513 95.40270441666382 -112.89858558202985 245.56425193108726 -167.61056214926407C395.7257994455106 -222.32253871649823 571.5690926971232 -324.7183105351924 685.6244564596955 -80.25156225483136C799.6798202222678 164.21518602552965 905.529404009051 865.573286121672 793.029997991433 1005.829829596468 "></path><path d="M669.7564853542958 -53.57095042491892C777.4754400189472 177.3143118398665 877.4444913731315 839.7080730417788 771.1950523564922 972.1725863235304C664.9456133398528 1104.6370996052822 322.71145218572883 744.2828611699151 159.75917807442647 582.2587133274878C-3.193096036875886 420.23456548506044 -30.639382521871084 344.1098820704873 -10.975863377758571 194.45667667987732C8.687655766353885 44.803471289267236 112.32483064698806 -84.40425023393965 254.14406996616572 -136.0766725474386C395.96330928534337 -187.74909486093753 562.0375306896441 -284.4562126897043 669.7564853542958 -53.57095042491892C777.4754400189472 177.3143118398665 877.4444913731315 839.7080730417788 771.1950523564922 972.1725863235304 "></path><path d="M653.8884226961617 -26.89027755985012C755.2709682628924 190.4134986893598 849.3594871844775 813.8429209970418 749.360015168817 938.5154040857494C649.3605431531565 1063.187887174457 327.2578032433928 724.0309568823468 173.89095702099053 571.5376412659446C20.52411079858831 419.0443256495423 -5.307688246113003 347.39756478876757 13.19915330128697 206.5474891270169C31.70599484868694 65.69741346526632 129.24686532457787 -55.909853850693196 262.7237964485098 -104.54272191045692C396.2007275724418 -153.17558997022064 552.5058771294307 -244.19405380905994 653.8884226961617 -26.89027755985012C755.2709682628924 190.4134986893598 849.3594871844775 813.8429209970418 749.360015168817 938.5154040857494 "></path><path d="M638.0204210731837 -0.20966572993756927C733.0665575419939 203.51262450369666 821.27454403098 787.9777079171486 727.5250390162983 904.858160812812C633.7755340016165 1021.7386137084752 331.804215336213 703.7789915596218 188.02279700271083 560.8165081692448C44.24137866920876 417.8540247788677 20.024067064801272 350.6851864718915 37.37423101548876 218.6382405390002C54.72439496617619 86.59129460610905 146.16896103732398 -27.415518502602993 271.30358396601014 -73.0088323086315C396.43820689469635 -118.60214611465994 542.9742846043735 -203.9319559635718 638.0204210731837 -0.20966572993756927C733.0665575419939 203.51262450369666 821.27454403098 787.9777079171486 727.5250390162983 904.858160812812 "></path><path d="M622.1523889326278 26.471007135131174C710.8621163035173 216.61181135318975 793.1895703599043 762.1125558724116 705.6900323462013 871.2009785750306C618.1904943324982 980.2894012776499 336.350596911455 683.5270872720534 202.154606466853 550.0954361077014C67.95861602225114 416.66378494334936 45.35579185813742 353.97286919017165 61.549278212112426 230.72905298613978C77.74276456608737 107.48523678210802 163.09102623249197 1.0788778806434607 279.88334096593246 -41.47488167164977C396.6756556993728 -84.02864122394305 533.4426615617381 -163.6697970829274 622.1523889326278 26.471007135131174C710.8621163035173 216.61181135318975 793.1895703599043 762.1125558724116 705.6900323462013 871.2009785750306 "></path><path d="M606.2843262744937 53.15164948262179C688.6576445474625 229.71096768510483 765.1045661712503 736.2473733100965 683.8549951585262 837.5437658196713C602.605424145802 938.8401583292462 340.89694796911886 663.2751524669065 216.28638541341718 539.3743335285799C91.67582285771533 415.473514590253 70.6874861338955 357.2605213908736 85.72429489115797 242.81983491570122C100.76110364842043 128.37914844052875 180.01306091008183 29.573243746311732 288.46306744827655 -9.940961552246222C396.9130739864712 -49.45516685080429 523.9110080015248 -123.40766871986119 606.2843262744937 53.15164948262179C688.6576445474625 229.71096768510483 765.1045661712503 736.2473733100965 683.8549951585262 837.5437658196713 "></path><path d="M590.4163246515157 79.83235286526866C666.453233826564 242.81018505217605 737.0196230177528 710.3822517829376 662.0200190060074 803.8866140994683C587.020414994262 897.3909764159989 345.4433600619391 643.0232786969163 230.41822539513748 528.6532919846146C115.39309072833578 414.2833052723129 96.01924144480978 360.548234626732 109.89937260535976 254.91067788041892C123.77950376590974 149.27312113410596 196.93515662282795 58.06767064713637 297.0428549657769 21.593019602313575C397.1505533087259 -14.881631442509217 514.3794154764676 -83.14547932163867 590.4163246515157 79.83235286526866C666.453233826564 242.81018505217605 737.0196230177528 710.3822517829376 662.0200190060074 803.8866140994683 "></path><path d="M574.5482925109598 106.51299521275928C644.2487925880872 255.90934138409102 708.934649346677 684.5170692206225 640.1850123359104 770.2294013441087C571.4353753251437 855.9417334675954 349.98974163718117 622.7713438917697 244.55003485927966 517.9321894054931C139.1103280813781 413.0930349192165 121.35096623814593 363.8358868274339 134.07441980198342 267.00145980998036C146.79787336582086 170.1670327925268 213.85722181799593 86.56203651280464 305.6226119656991 53.12693972171712C397.3880021134023 19.691842930629548 504.8477924338322 -42.883350958572464 574.5482925109598 106.51299521275928C644.2487925880872 255.90934138409102 708.934649346677 684.5170692206225 640.1850123359104 770.2294013441087 "></path><path d="M558.6802451116147 133.19354600751558C622.0443360908215 269.00840616327173 680.8496604168122 658.6517951055731 618.3499904070243 736.5720970360153C555.8503203972365 814.4923989664574 354.5361079536342 602.5193175338886 258.6818290646328 507.2109952736373C162.82755017563136 411.90267301338577 146.68267577269302 367.1234474754016 158.24945173981803 279.09215018680743C169.81622770694298 191.06085289821328 230.77927175437486 115.05631082573859 314.20235370683235 84.6607682883863C397.6254356592897 54.265225751033995 495.31615413240786 -2.6213141482405717 558.6802451116147 133.19354600751558C622.0443360908215 269.00840616327173 680.8496604168122 658.6517951055731 618.3499904070243 736.5720970360153 "></path><path d="M542.8122587474259 159.87424939016245C599.839940628712 282.10762353034295 652.7647325221036 632.7866735784141 596.5150295132946 702.9149453158121C540.2653265044855 773.0432170532101 359.08253530524337 582.2674437638982 272.81368430514215 496.4899537296719C186.54483330504087 410.71246369544565 172.0144463423964 370.41116071125975 182.42454471280888 291.1829931515251C192.83464308322135 211.95482559179038 247.70138272591004 143.55073772656317 322.78215648312175 116.19474944294609C397.8629302403334 88.83876115932901 485.7845768661398 37.640875249981946 542.8122587474259 159.87424939016245C599.839940628712 282.10762353034295 652.7647325221036 632.7866735784141 596.5150295132946 702.9149453158121 "></path><path d="M526.944241865659 186.55486122007494C577.6355146490243 295.2067493446799 624.6797741098169 606.9214604985209 574.6800381019866 669.2577020428747C524.6803020941563 731.5939435872285 363.6289321392745 562.0154784411734 286.9455090280734 485.7688206329723C210.2620859168723 409.52216282477116 197.34618639452162 373.6987823943838 206.5996071682216 303.27374456350844C215.8530279419216 232.84870673263316 264.6234631798671 172.04507307465343 331.361928741833 147.72863904477157C398.100394303799 123.41220501488971 476.2529690822935 77.90297309547003 526.944241865659 186.55486122007494C577.6355146490243 295.2067493446799 624.6797741098169 606.9214604985209 574.6800381019866 669.2577020428747 "></path><path d="M511.0762097251029 213.23551882635462C555.4310734105477 308.30592093538394 596.5948004387412 581.0562931949949 552.8450314318898 635.6005045463044C509.0952624250382 690.144715897614 368.17531371451656 541.7635588948158 301.07731849221557 475.0477333126398C233.97932326991463 408.33190773046374 222.67791118785777 376.9864498538749 230.77465436484528 315.36454175185895C238.87139754183278 253.74263364984307 281.5455283750351 200.53945419911076 339.9416857417553 179.26257442296418C398.33784310847545 157.98569464681754 466.7213460396581 118.16511671732536 511.0762097251029 213.23551882635462C555.4310734105477 308.30592093538394 596.5948004387412 581.0562931949949 552.8450314318898 635.6005045463044 "></path><path d="M495.20814706696876 239.9161611738453C533.2266016544929 321.40507726729896 568.5097962500873 555.1911106326797 531.0099942442146 601.9432917909451C493.5101922383419 648.6954729492104 372.7216647721805 521.5116240896691 315.2090974387797 464.3266307335182C257.6965301053788 407.1416373773674 248.0096054636158 380.27410205457693 254.94967104389082 327.4553236814204C261.8897366241658 274.6365453082639 298.4675630526249 229.0338200647791 348.5214122240994 210.79649454236772C398.5752613955739 192.5591690199563 457.1896924794447 158.42724508039157 495.20814706696876 239.9161611738453C533.2266016544929 321.40507726729896 568.5097962500873 555.1911106326797 531.0099942442146 601.9432917909451 "></path><path d="M479.34011492641275 266.59678826254685C511.0221604160163 334.5042183404249 540.4248225790116 529.3259128115756 509.1749875741176 568.2860637767967C477.92515256922366 607.2462147420177 377.26804634742257 501.2596740257334 329.34090690292186 453.6055128956077C281.41376745842115 405.95135176548195 273.341330256952 383.5617389964898 279.1247182405145 339.5460903521928C284.90810622407696 295.5304417078957 315.38962824779287 257.52817067165836 357.10116922402165 242.3303994029822C398.8127102002503 227.13262813430606 447.65806943680946 198.68935818466878 479.34011492641275 266.59678826254685C511.0221604160163 334.5042183404249 540.4248225790116 529.3259128115756 509.1749875741176 568.2860637767967 "></path><path d="M463.47212856222404 293.27743061003747C488.8177649539067 347.60337467233995 512.339894684303 503.46073024926045 487.34002668038784 534.6288510214374C462.3401586764727 565.7969717936143 381.8144736990318 481.0077392205867 343.4727621434312 442.8844103164861C305.13105058783066 404.7610814123856 298.67310082665534 386.8493911971919 303.29981121350534 351.6368722817542C307.92652160035533 316.42435336631655 332.31173921932805 286.0225365373267 365.68097200031104 273.86431952238576C399.05020478129404 261.7061025074448 438.12649217054127 238.95148654773504 463.47212856222404 293.27743061003747C488.8177649539067 347.60337467233995 512.339894684303 503.46073024926045 487.34002668038784 534.6288510214374 "></path><path d="M447.604096421668 319.9580729575281C466.61332371543006 360.702531004255 484.2549210132272 477.59554768694534 465.5050200102909 500.971638266078C446.75511900735455 524.3477288452107 386.36085527427383 460.75580441544 357.6045716075734 432.16330773736456C328.848287940873 403.57081105928916 324.0048256199915 390.13704339789393 327.474858410129 363.72765421131567C330.9448912002665 337.31826502473746 349.23380441449603 314.516902402995 374.26072900023325 305.3982396417893C399.28765358597053 296.27957688058365 428.59486912790595 279.21361491080125 447.604096421668 319.9580729575281C466.61332371543006 360.702531004255 484.2549210132272 477.59554768694534 465.5050200102909 500.971638266078 "></path><path d="M431.73604902232296 346.6387305638078C444.4088672181643 373.801702594959 456.1699320833624 451.7303803834193 443.66999808140486 467.31444076950777C431.1700640794473 482.89850115559625 390.90722159072686 440.5038848690824 371.7363658129266 421.4422204170321C352.5655100351263 402.38055596498185 349.3365351545386 393.424710857385 351.6498903479636 375.8184513996662C353.9632455413886 358.21219194194737 366.15585435087496 343.0112835274524 382.84047074136646 336.93217501998197C399.52508713185796 330.8530665125115 419.0632308264816 319.4757585326566 431.73604902232296 346.6387305638078C444.4088672181643 373.801702594959 456.1699320833624 451.7303803834193 443.66999808140486 467.31444076950777 "></path><path d="M415.868032140556 373.3193423937203C422.2044412384767 386.9008284092959 428.0849736710758 425.86516730352605 421.83500667009696 433.6571974965703C415.5850396691182 441.44922768961453 395.45361842475796 420.2519195463576 385.8681905358578 410.72108732033246C376.2827626469577 401.1902550943073 374.66827520666385 396.7123325405089 375.82495280337633 387.9092028116495C376.9816304000888 379.1060730827901 383.077934804832 371.5056188755426 391.4202430000778 368.4660646218074C399.7625511953235 365.4265103680722 409.5316230426353 359.73785637814467 415.868032140556 373.3193423937203C422.2044412384767 386.9008284092959 428.0849736710758 425.86516730352605 421.83500667009696 433.6571974965703 "></path></g></svg>